<svg xmlns="http://www.w3.org/2000/svg" height="100" viewBox="0 0 75.48 80" width="94.35"><path d="M54.861.002c-2.862-.032-5.363.3-7.201.666-.919.182-1.682.37-2.234.522-.082.023-.118.05-.19.072a37.385 37.385 0 00-5.515-.5c-3.802-.057-7.09.802-9.72 2.235C27.402 2.158 22.032.714 16.358 1c-3.944.2-8.266 1.31-11.456 4.445S.032 13.437.386 20.038c.098 1.821.642 4.782 1.569 8.627.927 3.846 2.226 8.37 3.85 12.478 1.625 4.11 3.402 7.805 6.18 10.315 1.389 1.256 3.305 2.3 5.561 2.21 1.581-.062 3.02-.694 4.255-1.64.601.736 1.222 1.058 1.806 1.356a9.56 9.56 0 002.21.784c1.333.31 3.602.734 6.275.309.912-.145 1.872-.436 2.828-.832.037.995.077 1.964.12 2.947.133 3.107.208 5.99 1.211 8.51.163.407.611 2.525 2.353 4.396s5.167 3.033 9.056 2.258c2.74-.546 6.217-1.522 8.533-4.587 2.29-3.033 3.337-7.377 3.54-14.427.052-.38.105-.72.167-1.022l.476.047h.142c2.927.124 6.094-.256 8.747-1.402 2.35-1.014 4.125-2.036 5.419-3.85.323-.454.688-1.013.784-1.95.096-.935-.466-2.387-1.426-3.065-1.92-1.356-3.125-.843-4.42-.594-1.712.328-2.95.434-3.899.451 3.73-5.843 6.413-12.049 7.939-17.54.9-3.243 1.406-6.227 1.45-8.841.044-2.615-.193-4.941-1.877-6.942C67.973 1.782 60.587.064 54.862.001zm-.689 1.902c5.415-.047 12.337 1.372 17.303 7.272 1.117 1.328 1.442 3.27 1.402 5.657-.04 2.387-.51 5.24-1.378 8.366-1.685 6.065-4.862 13.128-9.34 19.466.11.08.265.172.498.262.934.36 3.064.674 7.32-.143 1.072-.206 1.872-.362 2.686.214.408.288.638.866.595 1.283-.044.417-.223.735-.428 1.022-.82 1.15-2.46 2.24-4.54 3.138-1.845.796-4.475 1.212-6.821 1.236-1.173.012-2.265-.09-3.185-.357-.007-.002-.017.002-.024 0-.384 3.35-1.228 9.582-1.735 12.312-.428 2.31-1.167 4.138-2.59 5.514s-3.426 2.218-6.133 2.757c-3.348.667-5.793-.05-7.368-1.283-1.574-1.233-2.302-2.873-2.733-3.874-.298-.692-.446-1.587-.594-2.781s-.257-2.654-.333-4.302a141.304 141.304 0 01-.119-7.534 10.27 10.27 0 01-4.99 2.258c-2.223.353-4.211-.01-5.396-.286a7.329 7.329 0 01-1.664-.594c-.543-.276-1.074-.581-1.426-1.188-.176-.304-.293-.726-.19-1.141.103-.415.393-.756.713-.998.64-.485 1.48-.754 2.757-.998 2.317-.444 3.116-.75 3.613-1.118.428-.317.866-.903 1.759-1.877-.004-.04-.021-.079-.024-.119a10.035 10.035 0 01-4.278-1.07c-.487.474-2.974 2.902-5.99 6.275-1.264 1.413-2.658 2.224-4.135 2.282-1.478.058-2.811-.639-3.946-1.664-2.268-2.05-4.103-5.57-5.679-9.555-1.576-3.986-2.844-8.413-3.755-12.193-.911-3.78-1.442-6.827-1.521-8.295C2.166 13.6 3.727 9.385 6.424 6.728c2.697-2.656 6.403-3.658 10.006-3.85.9-.048 1.8-.063 2.686-.024 5.388.236 9.998 1.813 11.17 2.234 2.396-1.517 5.462-2.483 9.318-2.424a25.67 25.67 0 015.443.665c.03-.014.031-.017.047-.023.031-.013.07-.015.095-.024.104-.037.248-.082.452-.143a25.45 25.45 0 011.854-.475 33.076 33.076 0 016.678-.76zm.024 2.02a30.83 30.83 0 00-5.49.546c4.028 1.656 7.06 4.232 9.198 6.774a24.873 24.873 0 013.636 5.776c.356.795.6 1.452.737 1.972.068.26.105.48.119.713.006.117.028.228-.024.428-.005.02-.018.05-.024.072.09 2.617-.603 4.392-.69 6.892-.063 1.819.424 3.967.547 6.299.117 2.192-.152 4.598-1.687 6.963.122.14.239.27.356.404 4.043-5.925 6.98-12.475 8.533-18.063.836-3.008 1.271-5.73 1.307-7.89.036-2.16-.4-3.744-.95-4.397C65.292 5.1 59.2 3.88 54.196 3.923zm-14.617.76c-3.7-.056-6.407.862-8.485 2.306a12.72 12.72 0 00-.523.38c-2.14 1.657-3.572 3.925-4.516 6.251-1.101 2.714-1.51 5.428-1.664 7.25.017-.01.031-.016.048-.025a17.749 17.749 0 014.302-1.545 11.83 11.83 0 012.472-.285c.836 0 1.68.12 2.471.404 1.583.569 2.878 1.91 3.352 3.946 2.27 9.766-.709 13.394-1.807 16.138v.023c-.462 1.159-.85 2.186-1.07 3.043.143-.034.289-.084.429-.095.774-.063 1.374.193 1.735.332 1.103.426 1.874 1.308 2.281 2.33.102.255.167.53.214.808a1.085 1.008 0 010 .047c.004.024.02.048.024.072a1.085 1.008 0 01.048.309c-.12 3.984-.102 7.987.047 11.218.075 1.615.194 3.038.333 4.159.138 1.12.328 1.97.451 2.258.413.959 1.024 2.211 2.116 3.066 1.091.854 2.654 1.425 5.514.855 2.479-.494 3.994-1.176 5.015-2.163 1.02-.986 1.63-2.363 2.02-4.468.579-3.117 1.741-12.047 1.901-13.904-.002-.042.002-.077 0-.119a1.085 1.009 0 010-.047c-.054-1.267.155-2.246.595-2.995.46-.783 1.167-1.263 1.782-1.521.304-.127.594-.197.832-.261a18.83 18.83 0 00-.784-.975c-.657-.77-1.508-1.826-2.163-3.304-.07-.157-.402-.733-.832-1.45a107.82 107.82 0 01-1.521-2.638c-1.135-2.025-2.378-4.478-3.019-6.868-.64-2.39-.738-4.862.904-6.608 1.454-1.548 3.992-2.19 7.819-1.83-.11-.318-.167-.575-.356-.998-.642-1.433-1.754-3.35-3.375-5.277-3.244-3.854-8.48-7.696-16.591-7.82zm-21.32.167a23.257 23.257 0 00-1.711.024c-3.26.173-6.351 1.06-8.557 3.232-2.205 2.172-3.644 5.727-3.327 11.622.06 1.115.578 4.247 1.474 7.962.895 3.715 2.157 8.093 3.684 11.955 1.526 3.862 3.374 7.227 5.133 8.818.88.795 1.655 1.097 2.353 1.07.7-.028 1.54-.396 2.567-1.546a125.499 125.499 0 015.847-6.132c-2.724-2.16-4.351-5.655-3.779-9.46.333-2.214.372-4.301.333-5.941-.037-1.507-.129-2.513-.143-3.185a1.094 1.017 0 01-.024-.19v-.024c-.001-.068-.13-5.083 1.926-10.149.905-2.23 2.244-4.485 4.254-6.322-2.123-.643-6.017-1.655-10.03-1.735zm39.098 15.853c-1.925.085-3.036.597-3.637 1.236-.915.973-.993 2.693-.427 4.8s1.729 4.457 2.828 6.418c.55.98 1.066 1.872 1.497 2.59.431.72.758 1.23.95 1.664.182.408.371.762.571 1.094.855-1.669.994-3.308.904-5.015-.112-2.108-.623-4.28-.547-6.465.088-2.567.649-4.193.69-6.18a20.872 20.872 0 00-1.95-.142c-.309-.006-.604-.012-.88 0zm-26.144.332c-.628 0-1.314.092-1.997.238a15.552 15.552 0 00-3.707 1.331 8.66 8.66 0 00-1.141.69c-.041.03-.042.045-.072.07.017.442.13 1.482.167 3.043.041 1.711-.001 3.913-.357 6.275-.771 5.13 3.233 9.38 7.939 9.388.273-1.054.714-2.129 1.164-3.256 1.312-3.283 3.885-5.675 1.712-15.021-.355-1.527-1.054-2.149-2.02-2.496-.484-.174-1.06-.261-1.688-.261zm25.717.618c.212.005.398.034.57.072s.33.088.452.166.216.193.237.333v.024c.015.138-.04.263-.118.404a2.035 2.035 0 01-.357.451c-.304.297-.725.576-1.236.642a2.042 2.042 0 01-1.33-.309c-.173-.108-.322-.233-.429-.357s-.17-.246-.19-.38c-.02-.14.049-.274.143-.38.094-.106.201-.205.356-.285.31-.161.738-.272 1.212-.333.238-.03.477-.052.69-.048zm-25.574.5c.223-.005.466.015.713.047.494.064.923.182 1.26.357.168.087.313.203.427.332s.196.301.167.5c-.028.186-.118.313-.238.451-.12.139-.265.287-.452.404a2.207 2.207 0 01-1.45.333c-.565-.073-1.028-.371-1.354-.69a2.189 2.189 0 01-.38-.499c-.092-.165-.175-.312-.143-.522l.047-.286h.096a.996.996 0 01.19-.166 1.48 1.48 0 01.499-.19 3.16 3.16 0 01.618-.071zm29.4 22.056c-.475.155-.86.219-1.188.356-.327.137-.575.285-.784.642-.203.345-.383.956-.333 1.996.057.042.21.114.476.19.554.16 1.49.272 2.519.262 2.06-.021 4.595-.465 5.942-1.046a12.932 12.932 0 003.042-1.854c-4.492.862-7.049.646-8.604.048a4.24 4.24 0 01-1.07-.595zm-25.978.26c-.172.014-.426.074-.903.571-1.125 1.168-1.521 1.904-2.449 2.59-.927.688-2.135 1.061-4.54 1.522-.76.146-1.182.3-1.473.428.093.07.07.069.214.142.35.178.801.344 1.165.428 1.036.241 2.745.52 4.516.238s3.608-1.066 5.18-3.114c.271-.352.296-.89.072-1.45-.223-.56-.72-1.03-1.07-1.164-.34-.131-.54-.204-.711-.19z"/></svg>