<svg width="584" height="250" viewBox="0 0 584 250" fill="none" xmlns="http://www.w3.org/2000/svg">
    <path fill-rule="evenodd" clip-rule="evenodd"
          d="M475.182 0.00341797C478.992 0.00341797 482.436 2.27348 483.938 5.7751L582.991 236.715C585.065 241.551 582.826 247.152 577.991 249.226C573.155 251.301 567.554 249.062 565.48 244.226L475.182 33.6998L384.885 244.226C382.811 249.062 377.209 251.301 372.374 249.226C367.538 247.152 365.299 241.551 367.373 236.715L466.426 5.7751C467.928 2.27348 471.372 0.00341797 475.182 0.00341797Z"
          fill="#FFCCB9" fill-opacity="0.2"/>
    <path fill-rule="evenodd" clip-rule="evenodd"
          d="M434.674 171.365C439.51 169.29 445.112 171.529 447.186 176.364L473.08 236.714C475.154 241.55 472.916 247.152 468.081 249.226C463.245 251.301 457.644 249.063 455.569 244.227L429.676 183.877C427.601 179.041 429.839 173.44 434.674 171.365Z"
          fill="#FFCCB9" fill-opacity="0.2"/>
    <path fill-rule="evenodd" clip-rule="evenodd"
          d="M5.77366 0.774524C10.6092 -1.2998 16.2108 0.938606 18.2851 5.77415L108.596 216.303L198.894 5.77461C200.968 0.938961 206.57 -1.29974 211.406 0.774325C216.241 2.84839 218.48 8.44983 216.406 13.2855L117.353 244.226C115.851 247.727 112.407 249.997 108.597 249.997C104.787 249.997 101.344 247.728 99.8415 244.226L0.774035 13.2859C-1.30029 8.4504 0.938118 2.84885 5.77366 0.774524Z"
          fill="#FFCCB9" fill-opacity="0.2"/>
    <path fill-rule="evenodd" clip-rule="evenodd"
          d="M320.964 0.774325C325.799 2.84839 328.038 8.44983 325.964 13.2855L226.911 244.226C225.409 247.727 221.966 249.997 218.156 249.997C214.345 249.997 210.902 247.728 209.4 244.226L154.613 116.512C152.539 111.677 154.777 106.075 159.613 104.001C164.449 101.926 170.05 104.165 172.124 109L218.155 216.303L308.453 5.77461C310.527 0.938961 316.128 -1.29974 320.964 0.774325Z"
          fill="#FFCCB9" fill-opacity="0.2"/>
    <path fill-rule="evenodd" clip-rule="evenodd"
          d="M113.906 0.774771C118.742 -1.29987 124.343 0.938165 126.418 5.77357L152.312 66.1241C154.386 70.9595 152.148 76.5612 147.313 78.6358C142.477 80.7104 136.876 78.4724 134.801 73.637L108.908 13.2865C106.833 8.45112 109.071 2.84942 113.906 0.774771Z"
          fill="#FFCCB9" fill-opacity="0.2"/>
    <path fill-rule="evenodd" clip-rule="evenodd"
          d="M362.678 0.00341798C366.488 0.00359762 369.932 2.2738 371.434 5.77546L426.205 133.49C428.279 138.325 426.04 143.927 421.205 146C416.369 148.074 410.767 145.835 408.694 141L362.676 33.6994L272.366 244.227C270.291 249.062 264.69 251.301 259.854 249.226C255.019 247.152 252.78 241.55 254.855 236.715L353.922 5.77464C355.424 2.27311 358.868 0.00323834 362.678 0.00341798Z"
          fill="#FFCCB9" fill-opacity="0.2"/>
</svg>
