<svg width="458" height="250" viewBox="0 0 458 250" fill="none" xmlns="http://www.w3.org/2000/svg">
<path fill-rule="evenodd" clip-rule="evenodd" d="M349.182 0.00292969C352.992 0.00292969 356.436 2.27299 357.938 5.77461L456.991 236.715C459.065 241.55 456.826 247.152 451.991 249.226C447.155 251.3 441.554 249.061 439.479 244.226L349.182 33.6993L258.885 244.226C256.811 249.061 251.209 251.3 246.374 249.226C241.538 247.152 239.299 241.55 241.373 236.715L340.426 5.77461C341.928 2.27299 345.372 0.00292969 349.182 0.00292969Z" fill="#F2F2F2"/>
<path fill-rule="evenodd" clip-rule="evenodd" d="M308.674 171.365C313.51 169.29 319.112 171.528 321.186 176.363L347.08 236.714C349.154 241.549 346.916 247.151 342.081 249.226C337.245 251.3 331.644 249.062 329.569 244.227L303.676 183.876C301.601 179.041 303.839 173.439 308.674 171.365Z" fill="#F2F2F2"/>
<path fill-rule="evenodd" clip-rule="evenodd" d="M-120.226 0.774035C-115.391 -1.30029 -109.789 0.938118 -107.715 5.77366L-17.4036 216.302L72.8944 5.77412C74.9684 0.938473 80.5699 -1.30023 85.4055 0.773836C90.2412 2.8479 92.4799 8.44934 90.4058 13.285L-8.64721 244.225C-10.1491 247.727 -13.5927 249.997 -17.4027 249.997C-21.2127 249.997 -24.6564 247.727 -26.1585 244.226L-125.226 13.2855C-127.3 8.44991 -125.062 2.84836 -120.226 0.774035Z" fill="#F2F2F2"/>
<path fill-rule="evenodd" clip-rule="evenodd" d="M194.964 0.773836C199.799 2.8479 202.038 8.44934 199.964 13.285L100.911 244.225C99.4091 247.727 95.9655 249.997 92.1555 249.997C88.3455 249.997 84.9018 247.727 83.3997 244.226L28.6134 116.512C26.5391 111.676 28.7775 106.074 33.613 104C38.4485 101.926 44.0501 104.164 46.1244 109L92.1546 216.302L182.453 5.77412C184.527 0.938473 190.128 -1.30023 194.964 0.773836Z" fill="#F2F2F2"/>
<path fill-rule="evenodd" clip-rule="evenodd" d="M-12.0936 0.774283C-7.25817 -1.30036 -1.65647 0.937677 0.418179 5.77308L26.3117 66.1236C28.3864 70.959 26.1483 76.5607 21.3129 78.6353C16.4775 80.71 10.8758 78.4719 8.80118 73.6365L-17.0924 13.286C-19.167 8.45063 -16.929 2.84893 -12.0936 0.774283Z" fill="#F2F2F2"/>
<path fill-rule="evenodd" clip-rule="evenodd" d="M236.678 0.0029297C240.488 0.00310934 243.932 2.27331 245.433 5.77497L300.205 133.489C302.279 138.325 300.04 143.926 295.205 146C290.369 148.074 284.767 145.835 282.694 140.999L236.676 33.6989L146.366 244.226C144.291 249.062 138.69 251.3 133.854 249.226C129.019 247.151 126.78 241.55 128.855 236.714L227.922 5.77415C229.424 2.27263 232.868 0.00275006 236.678 0.0029297Z" fill="#F2F2F2"/>
</svg>
