<svg width="162" height="22" viewBox="0 0 162 22" fill="none" xmlns="http://www.w3.org/2000/svg">
<g id="Logotype">
<path id="Vector" d="M27.7895 2.26195H32.9017C33.0807 2.26195 33.246 2.19829 33.3919 2.07373C33.5434 1.94363 33.6206 1.76924 33.6206 1.55334C33.6206 1.33743 33.5434 1.16306 33.3919 1.03296C33.246 0.908397 33.0807 0.844727 32.9017 0.844727H27.7895C27.6104 0.844727 27.4452 0.908397 27.2992 1.03296C27.1477 1.16306 27.0706 1.3402 27.0706 1.55334C27.0706 1.76648 27.1477 1.94363 27.2992 2.07373C27.4452 2.19829 27.6104 2.26195 27.7895 2.26195Z" fill="white"/>
<path id="Vector_2" d="M30.9791 4.17197C30.8084 3.80936 30.5412 3.73462 30.3456 3.73462C30.1501 3.73462 29.8829 3.80936 29.7094 4.1775L22.4074 20.96C22.3688 21.068 22.3523 21.1648 22.3523 21.2451C22.3523 21.4223 22.4156 21.5856 22.5451 21.7295C22.6773 21.879 22.8536 21.9565 23.074 21.9565C23.2503 21.9565 23.399 21.9094 23.5119 21.8181C23.6193 21.7323 23.6937 21.6382 23.735 21.5385L30.3484 6.20923L33.2901 13.0822H29.1061C28.8885 13.0822 28.7095 13.1597 28.5773 13.3092C28.4506 13.4531 28.3845 13.6164 28.3845 13.7936C28.3845 13.9708 28.4478 14.1341 28.5773 14.278C28.7095 14.4275 28.8858 14.505 29.1061 14.505H33.9181L36.9645 21.5385C37.0058 21.6382 37.0802 21.7351 37.1876 21.8209C37.3005 21.9122 37.4493 21.9593 37.6255 21.9593C37.8431 21.9593 38.0222 21.8818 38.1544 21.7323C38.2811 21.5884 38.3472 21.425 38.3472 21.2479C38.3472 21.1676 38.3279 21.0763 38.2866 20.9545L30.9846 4.1775L30.9791 4.17197Z" fill="white"/>
<path id="Vector_3" d="M67.5109 4.17197C67.3402 3.80936 67.073 3.73462 66.8774 3.73462C66.6819 3.73462 66.4147 3.80936 66.2411 4.1775L58.9364 20.96C58.8979 21.068 58.8813 21.1648 58.8813 21.2451C58.8813 21.4223 58.9447 21.5856 59.0714 21.7295C59.2036 21.879 59.3799 21.9565 59.6002 21.9565C59.7765 21.9565 59.9253 21.9094 60.0382 21.8181C60.1456 21.7323 60.22 21.6382 60.2613 21.5385L66.8747 6.20923L69.8164 13.0822H65.6324C65.4121 13.0822 65.2358 13.1597 65.1036 13.3092C64.9769 13.4531 64.9108 13.6164 64.9108 13.7936C64.9108 13.9708 64.9741 14.1341 65.1036 14.278C65.2358 14.4275 65.4121 14.505 65.6324 14.505H70.4444L73.4908 21.5385C73.5321 21.6382 73.6065 21.7351 73.7139 21.8209C73.8268 21.9122 73.9755 21.9593 74.1518 21.9593C74.3694 21.9593 74.5485 21.8818 74.6807 21.7323C74.8074 21.5884 74.8735 21.425 74.8735 21.2479C74.8735 21.1676 74.8542 21.0763 74.8129 20.9545L67.5109 4.1775V4.17197Z" fill="white"/>
<path id="Vector_4" d="M105.899 4.17197C105.728 3.80936 105.461 3.73462 105.266 3.73462C105.07 3.73462 104.803 3.80936 104.629 4.1775L97.3246 20.96C97.286 21.068 97.2695 21.1648 97.2695 21.2451C97.2695 21.4223 97.3329 21.5856 97.4596 21.7295C97.5918 21.879 97.7681 21.9565 97.9884 21.9565C98.1675 21.9565 98.3134 21.9094 98.4264 21.8181C98.5338 21.7323 98.6082 21.6382 98.6495 21.5385L105.263 6.20923L108.205 13.0822H104.021C103.8 13.0822 103.624 13.1597 103.492 13.3092C103.365 13.4531 103.299 13.6164 103.299 13.7936C103.299 13.9708 103.362 14.1341 103.492 14.278C103.624 14.4275 103.8 14.505 104.021 14.505H108.833L111.879 21.5385C111.92 21.6382 111.995 21.7351 112.102 21.8209C112.215 21.9122 112.364 21.9593 112.54 21.9593C112.758 21.9593 112.937 21.8818 113.069 21.7323C113.196 21.5884 113.262 21.425 113.262 21.2479C113.262 21.1676 113.242 21.0763 113.201 20.9545L105.899 4.1775V4.17197Z" fill="white"/>
<path id="Vector_5" d="M98.0271 4.45699C98.0271 4.27984 97.9637 4.11652 97.8343 3.97259C97.7021 3.82311 97.5258 3.74561 97.3055 3.74561C96.9914 3.74561 96.7573 3.90615 96.6196 4.2134L90.0558 19.4458L86.8138 11.9113L89.9264 4.76424C89.9649 4.65075 89.9814 4.5511 89.9814 4.45699C89.9814 4.27984 89.9181 4.11652 89.7886 3.97259C89.6564 3.82311 89.4801 3.74561 89.2598 3.74561C88.9458 3.74561 88.7116 3.90615 88.5739 4.2134L82.0074 19.4458L75.4409 4.21063C75.3059 3.90615 75.069 3.74561 74.7578 3.74561C74.5402 3.74561 74.3611 3.82034 74.2289 3.97259C74.1022 4.11652 74.0361 4.27984 74.0361 4.45699C74.0361 4.55664 74.0637 4.66736 74.1215 4.80022L81.3188 21.4692C81.4372 21.7765 81.6741 21.9426 82.0046 21.9426C82.3352 21.9426 82.5748 21.7793 82.6905 21.4748L86.0288 13.6966L89.3644 21.4692C89.4829 21.7765 89.7198 21.9426 90.0503 21.9426C90.3808 21.9426 90.6205 21.7793 90.7362 21.4748L97.9362 4.80022C97.994 4.67012 98.0216 4.55664 98.0216 4.45699" fill="white"/>
<path id="Vector_6" d="M84.0155 9.11556C84.1505 9.42005 84.3873 9.58059 84.6986 9.58059C84.9162 9.58059 85.0952 9.50309 85.2274 9.35362C85.3541 9.20968 85.4202 9.04637 85.4202 8.86921C85.4202 8.7751 85.401 8.67268 85.3652 8.56196L83.4921 4.21063C83.3572 3.90615 83.1203 3.74561 82.8091 3.74561C82.5887 3.74561 82.4124 3.82034 82.2802 3.97259C82.1535 4.11652 82.0874 4.27984 82.0874 4.45699C82.0874 4.5511 82.1067 4.65628 82.148 4.77531L84.0183 9.11833L84.0155 9.11556Z" fill="white"/>
<path id="Vector_7" d="M143.489 4.17197C143.318 3.80936 143.051 3.73462 142.855 3.73462C142.66 3.73462 142.393 3.80936 142.219 4.1775L134.914 20.96C134.876 21.068 134.859 21.1648 134.859 21.2451C134.859 21.4223 134.923 21.5856 135.049 21.7295C135.182 21.879 135.358 21.9565 135.578 21.9565C135.757 21.9565 135.903 21.9094 136.016 21.8181C136.124 21.7323 136.198 21.6382 136.239 21.5385L142.853 6.20923L145.794 13.0822H141.61C141.39 13.0822 141.214 13.1597 141.082 13.3092C140.955 13.4531 140.889 13.6164 140.889 13.7936C140.889 13.9708 140.952 14.1341 141.082 14.278C141.214 14.4275 141.39 14.505 141.61 14.505H146.422L149.469 21.5385C149.51 21.6382 149.584 21.7351 149.692 21.8209C149.805 21.9122 149.954 21.9593 150.13 21.9593C150.347 21.9593 150.526 21.8818 150.659 21.7323C150.785 21.5884 150.852 21.425 150.852 21.2479C150.852 21.1676 150.832 21.0763 150.791 20.9545L143.489 4.1775V4.17197Z" fill="white"/>
<path id="Vector_8" d="M55.2343 21.9593C55.0167 21.9593 54.8046 21.8625 54.6669 21.6853L42.7816 6.52209V21.248C42.7816 21.6383 42.4593 21.9566 42.0626 21.9566C41.666 21.9566 41.3438 21.6383 41.3438 21.248V4.44885C41.3438 4.14436 41.5393 3.87586 41.8285 3.77898C42.1177 3.6821 42.44 3.77622 42.6301 4.01427L54.5154 19.1803V4.44885C54.5154 4.05856 54.8376 3.74023 55.2343 3.74023C55.6309 3.74023 55.9532 4.05856 55.9532 4.44885V21.2563C55.9532 21.5607 55.7576 21.8292 55.4684 21.9261C55.3913 21.951 55.3142 21.9649 55.237 21.9649" fill="white"/>
<path id="Vector_9" d="M155.98 21.9537C155.583 21.9537 155.261 21.6354 155.261 21.2451V12.4234L160.561 4.06955C160.77 3.73739 161.213 3.63774 161.549 3.84534C161.885 4.05294 161.987 4.49029 161.778 4.82245L156.699 12.8303V21.2451C156.699 21.6382 156.377 21.9537 155.98 21.9537Z" fill="white"/>
<path id="Vector_10" d="M154.515 11.0228C154.275 11.0228 154.041 10.9038 153.906 10.6907L150.185 4.82245C149.975 4.49029 150.075 4.05294 150.411 3.84534C150.747 3.63774 151.19 3.73739 151.399 4.06955L155.123 9.93776C155.333 10.2699 155.231 10.7073 154.895 10.9149C154.776 10.9896 154.644 11.0228 154.515 11.0228Z" fill="white"/>
<path id="Vector_11" d="M128.042 20.5366H123.905V5.15746H127.078C129.02 5.15746 130.601 6.72415 130.601 8.64793C130.601 10.5717 129.02 12.1384 127.078 12.1384H126.006C125.61 12.1384 125.287 12.4567 125.287 12.8498C125.287 13.2428 125.61 13.5612 126.006 13.5612H128.045C129.987 13.5612 131.568 15.1279 131.568 17.0516C131.568 18.9754 129.987 20.5421 128.045 20.5421M130.058 12.5674C131.256 11.6706 132.039 10.2506 132.039 8.6507C132.039 5.94358 129.813 3.74023 127.081 3.74023H123.213C123.213 3.74023 123.205 3.74023 123.202 3.74023C123.197 3.74023 123.194 3.74023 123.189 3.74023C122.792 3.74023 122.47 4.05856 122.47 4.44885V21.2507C122.47 21.6438 122.792 21.9593 123.189 21.9593V21.9649H128.045C130.78 21.9649 133.003 19.7615 133.003 17.0544C133.003 15.0559 131.791 13.337 130.058 12.5702" fill="white"/>
<path id="Vector_12" d="M18.9643 3.94507C18.8376 3.8039 18.6696 3.73193 18.463 3.73193C18.3501 3.73193 18.2371 3.75961 18.1242 3.81497C18.0085 3.8731 17.9204 3.95891 17.8625 4.07517L9.72322 19.7865L1.58392 4.07517C1.52607 3.95891 1.43793 3.8731 1.31949 3.81497C1.20931 3.75961 1.09363 3.73193 0.980698 3.73193C0.771362 3.73193 0.60334 3.8039 0.479392 3.94507C0.358197 4.08347 0.297607 4.23847 0.297607 4.40732V21.2784C0.297607 21.4473 0.358197 21.6023 0.479392 21.7407C0.60334 21.8818 0.774116 21.9538 0.980698 21.9538C1.18728 21.9538 1.35806 21.8818 1.482 21.7407C1.6032 21.6023 1.66379 21.4473 1.66379 21.2784V7.275L9.12 21.6161C9.25221 21.8403 9.45328 21.9538 9.7177 21.9538C9.98213 21.9538 10.1832 21.8403 10.3182 21.6106L17.7716 7.27223V21.2756C17.7716 21.4445 17.8322 21.5995 17.9562 21.7379C18.0801 21.8791 18.2509 21.951 18.4575 21.951C18.6641 21.951 18.8348 21.8791 18.9588 21.7379C19.08 21.5995 19.1433 21.4445 19.1433 21.2756V4.40456C19.1433 4.23571 19.0827 4.0807 18.9588 3.9423" fill="white"/>
</g>
</svg>
